<svg 
    viewBox="0 0 24 24" 
    aria-hidden="true" 
    class="r-4qtqp9 r-yyyyoo r-dnmrzs r-bnwqim r-lrvibr r-m6rgpd r-1nao33i r-lwhw9o r-cnnz9e" 
    xmlns="http://www.w3.org/2000/svg">
    <g>
        <g clip-path="url(#0-clip0_2592_269)" clip-rule="evenodd">
            <path d="M3 5.5C3 4.119 4.119 3 5.5 3h13C19.881 3 21 4.119 21 5.5v13c0 1.381-1.119 2.5-2.5 2.5h-13C4.119 21 3 19.881 3 18.5v-13zM5.5 5c-.276 0-.5.224-.5.5v9.086l3-3 3 3 5-5 3 3V5.5c0-.276-.224-.5-.5-.5h-13zM19 15.414l-3-3-5 5-3-3-3 3V18.5c0 .276.224.5.5.5h13c.276 0 .5-.224.5-.5v-3.086zM9.75 7C8.784 7 8 7.784 8 8.75s.784 1.75 1.75 1.75 1.75-.784 1.75-1.75S10.716 7 9.75 7z" fill="rgb(29, 155, 240)"></path>
        </g>
        <defs>
            <clipPath id="0-clip0_2592_269">
                <rect height="20" rx="1" width="20" x="2" y="2"></rect>
            </clipPath>
        </defs>
    </g>
</svg>
